<mxfile host="app.diagrams.net" modified="2023-12-20T03:34:41.652Z" agent="Mozilla/5.0 (Macintosh; Intel Mac OS X 10_15_7) AppleWebKit/537.36 (KHTML, like Gecko) Chrome/120.0.0.0 Safari/537.36" etag="92dGHD2XIXa0D3Y1Rw4Q" version="22.1.11" type="device">
  <diagram name="Page-1" id="u6XNEynmZ1h55CJx-iwY">
    <mxGraphModel dx="1075" dy="847" grid="1" gridSize="10" guides="1" tooltips="1" connect="1" arrows="1" fold="1" page="1" pageScale="1" pageWidth="850" pageHeight="1100" math="0" shadow="0">
      <root>
        <mxCell id="0" />
        <mxCell id="1" parent="0" />
        <mxCell id="sYsxIqpReYyket-OZrfG-2" value="&lt;b style=&quot;font-weight:normal;&quot; id=&quot;docs-internal-guid-72e36264-7fff-1597-c109-a36b1478050e&quot;&gt;&lt;img width=&quot;753px;&quot; height=&quot;371px;&quot; src=&quot;https://lh7-us.googleusercontent.com/0-dfPkL_tTlcURAqsZFArQ6asccWY41CXlVYn5026_HiuyNS2hp570VrcdBw6y3Z_PlYaF99LLhpnbszbhv4gLFjsl49OXS0yV7sMX3RzNsrj6oVDRx1UVP1W5ibdTXiYAfFyKwZLrOE80EzfJU75zNgcw=s2048&quot;&gt;&lt;/b&gt;" style="text;whiteSpace=wrap;html=1;" vertex="1" parent="1">
          <mxGeometry x="230" y="40" width="840" height="400" as="geometry" />
        </mxCell>
      </root>
    </mxGraphModel>
  </diagram>
</mxfile>
